# xmcd CD database file
#
# Track frame offsets:
#	150
#	3592
#	24375
#	40435
#	57232
#	80425
#	103687
#	125165
#	146335
#	164500
#	183207
#	196945
#	213320
#	233792
#	251832
#
# Disc length: 3566 seconds
#
# Revision: 0
# Processed by: cddbd v1.5.2PL0 Copyright (c) Steve Scherf et al.
# Submitted via: CDex 1.51
#
DISCID=cf0dec0f
DTITLE=Heli Schneider - New Statements
DYEAR=1998
DGENRE=Jazz
TTITLE0=Welcome city!
TTITLE1=City stroller
TTITLE2=Swingers unlimited
TTITLE3=Tranlated shuffle
TTITLE4=Jeans and T-shirt
TTITLE5=Chant land
TTITLE6=Bab bwa dap
TTITLE7=Brushes ballad
TTITLE8=Gold time
TTITLE9=House of stones
TTITLE10=Gain boy
TTITLE11=By Jack
TTITLE12=E. T. woman blues
TTITLE13=When the blue gets me down
TTITLE14=City stroller (Radio Version)
EXTD=YEAR: 1998
EXTT0=
EXTT1=
EXTT2=
EXTT3=
EXTT4=
EXTT5=
EXTT6=
EXTT7=
EXTT8=
EXTT9=
EXTT10=
EXTT11=
EXTT12=
EXTT13=
EXTT14=
PLAYORDER=
